<svg enable-background="new -297.099 -279.453 1000 853.026" height="292.061637" viewBox="-297.099 -279.453 1000 853.026" width="342.393479" xmlns="http://www.w3.org/2000/svg"><g fill="#fff"><path d="m26.447-44.206s9.727-15.564 17.509-18.159c7.785-2.597 19.455-20.108 19.455-20.108s-1.942-16.217 11.681-27.89c13.622-11.677 38.267-27.889 38.267-27.889l38.271-24.647s41.512-28.536 51.241-27.236c9.729 1.296 9.084-14.268 9.084-14.268l11.676-25.301s11.026-30.483 21.401-33.729c10.379-3.243 12.973-1.293 12.973-1.293l33.08 42.809-17.512 25.943-7.136 14.271 14.918 24.647 44.104 68.755-14.922 21.404-23.998 1.295-5.836 33.082 6.483 31.779-20.108 17.508-22.698 6.488-55.132-67.459-12.324-12.324-7.781-62.267-39.569 19.458-52.537 23.996-23.998 31.135z"/><path d="m171.245 11.418s-29.672-40.377 2.271-66.158l108.48 107.188 18.159 36.969-16.22 95.349 3.241 32.432-21.081 7.78-3.562-19.464s-7.138-4.538-1.297-25.292c0 0-1.944-65.512 4.541-73.294 0 0-2.594-12.974-11.026-21.405-8.433-8.432-27.405-23.025-27.405-23.025s-58.534-30.489-56.101-51.08z"/><path d="m71.191 157.839-3.243-2.918s51.891-54.481 60.325-67.454c8.43-12.975 19.462-36.325 22.706-47.35 3.243-11.028 17.188-29.514 20.269-28.699l29.674 47.513-114.162 114.799z"/></g><path d="m227.352 62.497c-7.905-1.861-32.268-26.432-32.268-26.432-.651-.325-11.888-9.934-14.113-11.839-1.134-.971-7.943-12.646-7.943-12.646l-1.783-.163v6.323s3.24 9.568 5.677 12.001c2.433 2.432 9.403 12.324 8.594 18.482 0 0-1.142 18.329-12.647 24.324-11.518 6.004-13.622 9.569-31.784 14.268 0 0-.325 3.729.16 3.729.488 0 7.46 3.243 10.543 2.437 3.08-.81 3.725.324 8.754-1.46 5.027-1.785 4.057 1.298 4.057 1.298s-11.511 4.051-14.433 4.217c-2.918.159-19.298 1.133-17.028 4.376 2.273 3.243 4.865 4.376 4.051 5.675-.808 1.296-13.455 5.838-13.132 8.758.326 2.918 3.244.811 2.918 3.563-.323 2.761-21.567 4.703-22.217 3.569 0 0-1.457 5.027-.159 6.323 1.297 1.301-12.324 6.163-16.54 12.326-4.219 6.163-15.566 13.946-16.867 16.215-1.297 2.267-6.487 5.192-5.513 15.244 0 0-11.024-5.188-18.161 7.134 0 0-2.273 8.755 5.189 14.271 7.457 5.513 14.268 26.594 20.429 29.838v3.889h40.536s1.95-2.592-5.187-1.622c0 0-5.838-9.727-9.081-11.028-3.243-1.293-12-4.214-11.675-10.375.325-6.163-2.27-4.541 1.947-11.349 4.211-6.813 37.942-59.025 61.298-67.133 23.351-8.106 14.268-15.244 17.835-11.673 0 0 44.107-46.698 43.455-49.292.004-.005 17.845-2.6 15.088-3.248z"/><path d="m265.778 230.493 1.942-16.22s2.597-2.271 3.568-2.916c.975-.647-9.404-3.566-10.377-7.138-.977-3.564-1.949-9.728-1.949-11.999s0-12.321 6.166-17.515c0 0 4.863-10.375 6.16-10.054 1.295.326-.975-3.243-1.949-3.563-.968-.325-1.939-.325-2.594-6.166-.65-5.838 1.626-6.814 2.276-7.134.647-.325 1.944-1.944 2.267-4.541.33-2.596-1.292-.646-4.538-1.945 0 0-2.922-2.598-2.272-4.864.652-2.272 7.46-22.058 19.459-32.106 0 0 7.133-11.997 4.866-13.946-2.27-1.947-1.622-2.269-4.866 1.296-3.244 3.566-4.216 3.894-5.188 3.894s-9.404-3.573-11.998-19.138c-2.597-15.569-4.864-24.972-8.758-27.568-3.892-2.597-2.597-7.134-16.542-14.271-13.941-7.134-19.779-10.051-23.995-14.916-4.217-4.865-6.813-8.434-8.105-15.244-1.297-6.812-5.516-5.513-8.759-6.812-3.243-1.296-19.46-4.542-23.028-13.622 0 0-3.243-4.54 20.758 5.514 0 0 9.402 2.271-12.329-9.408 0 0-8.427-5.835-8.75-11.348-.324-5.51 8.428-5.51 7.784-9.728 0 0 .973-2.918-4.704-5.191-5.676-2.267-6.647-6.646-6.812-8.588-.16-1.947-1.622-6.974-1.622-6.974s-3.563-6.003-6.483-7.782c0 0-6.974-13.297-6.651-16.54.326-3.244.326-14.271.326-14.271s.32-.977-1.299-1.622c-1.616-.651-14.591 6.485-25.295 10.049-10.703 3.568-55.458 17.188-58.051 25.295-2.594 8.107-7.136 15.565-7.783 22.378-.649 6.812-6.485 10.377-6.485 10.377s-3.896 4.54-2.271 7.46c1.621 2.923-9.081-2.595-6.814-10.052 2.271-7.459-9.404 9.081-9.404 11.672-.002 2.598-12.972-9.081-14.59-16.535-1.622-7.461 3.894-5.839 3.894-5.839l5.51 2.917s16.54-15.242 17.511-14.271c0 0 7.461-8.432 7.461-9.728s2.271-3.889 2.271-4.214c0-.326 8.755-10.055 9.729-10.055.976 0 11.676-8.107 11.676-8.107s1.623-1.949-1.947-3.243c-3.567-1.297-5.185-.325-3.244-2.925 1.947-2.593 6.487-3.564 9.083-3.564 2.595 0 10.057 2.596 12.323 2.596 2.273 0 2.273 0 3.244-1.622.976-1.621-3.889-2.917-5.511-3.565-1.621-.648-7.137-.973-7.137-.973s.329-4.865 6.489-4.214c6.158.647 9.726.976 16.538 6.49 0 0 8.757 1.942 8.43-2.271-.322-4.216-7.461-3.243-9.728-8.107-2.268-4.865 11.348-2.597 16.865-4.219 5.514-1.622 12.972-3.889 13.622-7.132.646-3.243-10.055-5.192 3.567-9.73 0 0 10.702.325 9.078-3.244-1.622-3.567-4.216-3.243-4.216-6.485s15.243-1.944 15.894-4.539c0 0 7.131-5.513 7.131-7.462 0-1.947 4.542-2.59 2.272 24.647 0 0 3.243 11.679 5.836 14.597 2.598 2.92-7.788 14.593-7.134 20.753 0 0-2.918 9.404-2.271 12.646.649 3.248 1.947 12.324 7.136 22.056 0 0-4.865 4.536 2.92 7.134 7.781 2.597 11.673 7.137 15.241 9.73 3.568 2.596 41.185 51.242 44.749 51.568 3.566.32 11.999 2.267 5.516-4.542-6.488-6.808-33.407-30.484-34.701-38.267 0 0-.647-6.812 7.779 2.918 8.436 9.728 33.405 28.863 44.757 28.863 11.351.005 10.054-4.536 10.054-4.536s-.975-1.947-2.924-2.271c-1.939-.328-45.726-9.731-44.751-27.244 0 0-.322-4.54 6.488 1.298 6.813 5.836 12.976 5.51 16.542 5.51s10.055-1.621 11.676-4.214c1.622-2.597-44.431-3.894-57.731-22.703 0 0-.809-2.918 5.188-3.731 0 0 25.134-18.158 9.241 2.92 0 0-1.295 4.38 3.243.488 0 0 31.785-29.352 33.571-42.646 0 0 4.863-4.865 3.239 2.432-1.622 7.296-9.732 27.725-19.296 38.266 0 0-1.622 5.354 5.507-1.782 7.142-7.137 24.651-23.999 25.79-64.052 1.136-40.054-8.435-50.428-8.435-50.428h-2.105s3.241 21.562 2.758 23.187c0 0-2.597 34.702-18.492 54.157-15.89 19.458-36.812 37.134-51.239 37.947 0 0-2.27-2.92 4.541-6.974 6.81-4.054 18.973-12.164 22.54-16.864 3.57-4.704 7.945-12.326-2.272-6.002-10.213 6.323-16.051 10.055-18.973 10.542-2.918.485-11.676.971-4.54-7.625 0 0 3.894-.97 5.189-2.267 1.296-1.301 4.216-7.786 3.735-10.219-.491-2.429.322-5.024 6.483-7.945 6.165-2.919 17.028-7.781 20.272-13.459 3.238-5.672 1.294-4.539-1.622-2.752-2.919 1.781-13.294 9.403-16.701 9.403-3.403 0-10.377-2.271-1.949-10.865 8.437-8.592 24.815-5.35 37.137-28.539 0 0 1.622-3.888-2.27-1.296-3.891 2.595-5.352 1.622-5.352 1.622s-7.458-3.245-12.165-12.324c-4.695-9.081-9.725-27.243-9.725-27.243s4.219-5.348 6.811 5.677c2.597 11.025 6.004 15.565 6.004 15.565s6.161 10.704 8.105-1.297c1.949-11.998-.323-19.294-1.136-21.081-.809-1.782 2.271-1.131 4.216 3.243 1.944 4.381 12.162 18.649 18.81 2.918 0 0 3.08-5.027.163-8.916l5.029-.487.973-3.243 3.239-2.92s5.838.976 4.868-4.54c-.975-5.512-1.624-3.892-1.624-3.892l.327-7.459s-2.922-5.514-8.11-1.298c-5.184 4.219-7.13.647-8.428-1.296-1.299-1.944-10.704-3.244-10.704-3.244s-9.082.326-8.759 7.462c0 0-8.105 1.296-8.105 9.403l-3.566 4.216-16.54-.32s-4.868-11.033-3.568-18.165c1.294-7.136 3.568-8.758 11.026-4.541 0 0 18.159-11.999 40.217-11.999 0 0-13.298-7.137-13.62-11.674-.322-4.539 6.482-5.189 6.482-5.189s-.967-8.752 2.922-8.428c0 0 8.107-7.139 34.377 23.998 0 0 11.679-.971 23.673 24.647 0 0-6.161 10.704-23.03 10.379 0 0-23.998 22.052-22.054 26.592 1.949 4.539 6.488.325 23.681 12.651 0 0 11.666 11.35 16.859 38.266 0 0 6.811 17.191 22.051 26.268 15.245 9.083 4.868 31.134 0 33.729-4.863 2.598-15.89 17.513-36.969 6.163 0 0-12.328 1.945-4.868 11.999 7.458 10.052 4.868 12.972 2.271 17.191-2.599 4.216 13.294 10.702 10.372 22.375-2.919 11.675 3.242 6.161-19.781 37.621 0 0-1.622 1.622 1.947 2.916 3.568 1.3 4.868 11.353 4.868 11.353s4.539 12.647 12.971 16.215c0 0 2.27 10.057 3.239 10.703.978.651 4.216 9.406 9.402 10.702 5.19 1.296.325 16.864.325 16.864s-8.107 23.674-7.783 25.945c.327 2.27-7.787 71.672-3.889 78.81 0 0 27.236 19.783 28.534 17.837 1.297-1.947 22.051 11.349 22.051 11.349z"/><path d="m286.864-81.817s-11.347-1.299-.973-5.838c10.377-4.541 11.35-5.187 12.648-5.187 1.295 0 5.188-.976 11.677 2.92 6.485 3.889 4.538 6.486-2.276 4.214-6.811-2.267-13.619-1.293-5.187 5.189 8.435 6.486 1.622 9.403-2.271 4.219-3.888-5.194-13.618-5.517-13.618-5.517z" fill="#fff"/><path d="m272.269-75.659s4.868-6.161 12.324-.644c0 0 4.216 3.238-5.834 8.754 0 0-6.49-.002-6.813 11.024 0 0 .652 4.54-3.889 7.783-4.544 3.243-23.678 14.268-13.946-5.188 9.725-19.459 18.158-21.729 18.158-21.729z" fill="#fff"/><path d="m400.354 242.603h-549.607v-522.055h549.607zm-532.357-17.249h515.108v-487.556h-515.108z"/><path d="m35.545 206.522v-3.338h2.078c1.126 0 2.657.102 2.657 1.53 0 1.531-.782 1.808-2.107 1.808zm0 2.349h1.398l3.203 5.826h3.504l-3.539-6.064c1.841-.137 3.337-1.059 3.337-3.614 0-3.167-2.112-4.188-5.689-4.188h-5.178v13.866h2.961v-5.826zm15.058-1.093c0-8.136-6.102-12.874-12.911-12.874-6.848 0-12.945 4.738-12.945 12.874 0 8.146 6.097 12.882 12.945 12.882 6.809 0 12.911-4.735 12.911-12.882zm-3.715 0c0 5.933-4.223 9.917-9.196 9.917v-.033c-5.108.033-9.234-3.951-9.234-9.886 0-5.925 4.126-9.879 9.234-9.879 4.973.003 9.196 3.955 9.196 9.881z"/><path d="m-294.771 406.938c-2.173-1.032-2.328-1.627-2.328-5.619 0-7.393.621-13.306.776-15.673.155-1.625.468-2.363 1.242-2.363.931 0 1.086.445 1.086 1.627 0 1.328 0 3.397.467 5.467 2.328 10.945 12.574 15.084 22.976 15.084 14.903 0 22.201-10.203 22.201-19.663 0-10.206-4.503-16.116-17.854-26.613l-6.986-5.473c-16.457-12.865-20.182-22.029-20.182-32.083 0-15.82 12.418-26.614 32.136-26.614 6.054 0 10.556.59 14.438 1.48 2.949.59 4.191.741 5.434.741 1.242 0 1.552.294 1.552 1.035 0 .738-.621 5.616-.621 15.668 0 2.366-.31 3.4-1.086 3.4-.933 0-1.087-.738-1.243-1.92-.155-1.776-1.087-5.767-2.018-7.393-.931-1.625-5.124-7.836-19.406-7.836-10.713 0-19.096 6.355-19.096 17.148 0 8.428 4.347 13.457 18.94 24.84l4.347 3.254c18.319 13.751 22.666 22.917 22.666 34.745 0 6.064-2.483 17.3-13.196 24.546-6.676 4.433-15.059 6.209-23.442 6.209-7.296-.002-14.437-1.036-20.803-3.994z"/><path d="m-189.511 365.981c0 14.196 0 25.875.776 32.081.466 4.288 1.397 7.545 6.055 8.134 2.173.294 5.589.592 6.986.592.931 0 1.242.443 1.242.886 0 .739-.776 1.18-2.484 1.18-8.539 0-18.319-.443-19.095-.443s-10.558.443-15.215.443c-1.707 0-2.483-.294-2.483-1.18 0-.445.311-.886 1.242-.886 1.397 0 3.261-.298 4.658-.592 3.104-.589 3.881-3.841 4.501-8.134.777-6.206.777-17.89.777-32.081v-26.021c0-23.066 0-27.208-.311-31.938-.311-5.025-1.864-7.542-5.278-8.278-1.709-.443-3.727-.593-4.813-.593-.621 0-1.242-.293-1.242-.885 0-.886.776-1.182 2.484-1.182 5.123 0 14.904.445 15.681.445.776 0 10.556-.445 15.214-.445 1.708 0 2.483.296 2.483 1.182 0 .592-.621.885-1.242.885-1.086 0-2.018.149-3.88.448-4.192.738-5.434 3.249-5.745 8.428-.31 4.73-.31 8.87-.31 31.934v26.02z"/><path d="m-24.952 389.789c.621 5.32 1.708 13.602 8.383 15.671 4.503 1.328 8.54 1.328 10.092 1.328.776 0 1.242.149 1.242.741 0 .886-1.397 1.329-3.259 1.329-3.416 0-20.184-.443-25.927-.884-3.571-.296-4.347-.741-4.347-1.479 0-.587.311-.884 1.086-1.035.776-.145.932-2.661.621-5.323l-7.452-76.29h-.466l-38.036 76.882c-3.26 6.508-3.727 7.839-5.124 7.839-1.086 0-1.863-1.48-4.813-6.804-4.036-7.241-17.387-32.819-18.163-34.302-1.398-2.662-18.785-38.144-20.493-42.138h-.622l-6.21 68.604c-.155 2.365-.155 5.026-.155 7.537 0 2.219 1.709 4.144 4.037 4.584 2.639.592 4.968.738 5.899.738.621 0 1.242.297 1.242.741 0 1.035-.931 1.329-2.794 1.329-5.744 0-13.196-.443-14.439-.443-1.397 0-8.849.443-13.041.443-1.552 0-2.639-.294-2.639-1.329 0-.444.776-.741 1.552-.741 1.242 0 2.33 0 4.658-.442 5.123-.886 5.589-6.654 6.21-12.273l11.178-96.399c.311-1.624.776-2.659 1.708-2.659s1.552.59 2.329 2.217l47.506 92.999 45.643-92.853c.621-1.33 1.242-2.365 2.328-2.365s1.552 1.179 1.863 3.99z"/><path d="m13.392 348.682c0-32.38 19.406-48.641 45.333-48.641 24.529 0 47.195 19.074 47.195 54.558 0 43.026-28.875 50.715-42.848 50.715-27.946-.003-49.68-22.181-49.68-56.632zm-14.748 4.143c0 26.613 17.697 58.104 60.236 58.104 37.415 0 61.943-27.354 61.943-60.47 0-34.449-26.082-55.446-61.012-55.446-42.849.001-61.167 33.858-61.167 57.812z"/><path d="m155.616 388.754c.311 12.124 1.862 15.965 6.055 17.151 2.95.739 6.365.883 7.762.883.776 0 1.243.299 1.243.889 0 .886-.932 1.182-2.795 1.182-8.849 0-15.059-.443-16.456-.443-1.398 0-7.918.443-14.905.443-1.552 0-2.483-.147-2.483-1.182 0-.59.466-.889 1.242-.889 1.242 0 4.037-.146 6.365-.883 3.882-1.037 4.658-5.323 4.658-18.777l.155-84.721c0-5.767.466-7.394 1.708-7.394s3.881 3.252 5.434 4.731c2.329 2.515 25.461 26.317 49.368 50.715 15.368 15.668 32.288 33.71 37.257 38.588l-1.706-75.109c-.154-9.608-1.242-12.862-6.055-14.047-2.792-.587-6.363-.738-7.604-.738-1.088 0-1.242-.443-1.242-1.035 0-.883 1.242-1.034 3.104-1.034 6.983 0 14.435.445 16.146.445 1.706 0 6.832-.445 13.194-.445 1.706 0 2.797.151 2.797 1.034 0 .592-.621 1.035-1.709 1.035-.774 0-1.862 0-3.726.445-5.123 1.034-5.746 4.286-5.746 13.158l-.309 86.644c0 9.756-.313 10.497-1.397 10.497-1.242 0-3.104-1.624-11.332-9.462-1.709-1.48-24.065-23.213-40.521-40.068-18.009-18.481-35.549-37.113-40.517-42.437z"/><path d="m359.767 403.092c-17.39 0-31.051-13.303-31.051-31.784 0-11.828 5.897-19.813 13.972-24.84 4.349 6.062 14.282 16.559 18.32 20.695 4.036 4.145 19.406 18.188 28.099 24.991-5.281 5.172-14.902 10.938-29.34 10.938zm-5.434 7.838c22.975 0 35.24-12.568 38.812-15.967 17.076 12.865 20.802 13.9 32.29 13.9h15.217c1.394 0 2.638-.443 2.638-1.035 0-.886-.772-1.035-2.174-1.035-5.59 0-13.505-2.96-18.477-5.766-4.347-2.368-11.176-6.357-21.421-14.637 6.832-7.984 15.368-22.919 15.368-34.894 0-1.482-.464-2.662-2.794-2.958-8.692-.888-14.905-1.034-18.631-1.034-1.242 0-2.483.296-2.483 1.034 0 .739.932 1.035 1.862 1.035 2.325 0 5.588.445 7.607 2.365 2.327 2.219 2.95 5.027 2.95 7.246 0 9.018-3.571 18.925-7.92 24.544-4.967-3.992-24.065-20.999-29.34-26.467-16.147-16.706-24.529-26.317-24.529-37.85 0-13.899 10.403-19.367 19.716-19.367 6.83 0 12.109 3.104 15.527 6.505 3.879 3.843 4.811 8.724 4.811 12.569 0 2.216.151 2.811.931 2.811.621 0 1.086-.296 1.555-2.513.465-2.216 1.086-12.568 1.086-17.002 0-1.773-.156-2.661-2.02-3.696-4.192-2.216-10.867-3.696-18.785-3.696-20.802 0-33.378 15.524-33.378 27.206 0 6.651 1.862 12.716 7.609 20.402-12.109 6.803-23.755 18.335-23.755 35.63 0 12.86 10.561 32.67 37.728 32.67z"/><path d="m-149.241 569.578c-2.173-1.034-2.328-1.627-2.328-5.619 0-7.393.621-13.306.776-15.674.155-1.624.466-2.362 1.242-2.362.932 0 1.087.444 1.087 1.626 0 1.329 0 3.398.465 5.468 2.33 10.942 12.575 15.084 22.978 15.084 14.903 0 22.2-10.203 22.2-19.663 0-10.206-4.501-16.116-17.854-26.613l-6.986-5.473c-16.456-12.865-20.182-22.029-20.182-32.083 0-15.82 12.42-26.614 32.136-26.614 6.055 0 10.558.59 14.438 1.48 2.95.59 4.192.741 5.434.741 1.243 0 1.553.294 1.553 1.035 0 .738-.622 5.616-.622 15.668 0 2.366-.311 3.4-1.086 3.4-.932 0-1.087-.738-1.242-1.92-.155-1.776-1.086-5.767-2.018-7.393-.931-1.625-5.124-7.836-19.406-7.836-10.712 0-19.095 6.355-19.095 17.148 0 8.428 4.347 13.457 18.94 24.84l4.346 3.254c18.319 13.751 22.667 22.917 22.667 34.745 0 6.064-2.483 17.3-13.196 24.546-6.676 4.433-15.059 6.209-23.443 6.209-7.298-.002-14.439-1.036-20.804-3.994z"/><path d="m-55.938 557.604c-15.059-12.865-18.782-29.72-18.782-43.767 0-9.908 3.57-27.206 17.387-40.364 9.315-8.87 23.443-15.82 47.351-15.82 6.21 0 14.903.442 22.51 1.773 5.9 1.035 10.868 1.923 15.836 2.217 1.708.148 2.018.741 2.018 1.626 0 1.185-.466 2.956-.776 8.278-.311 4.881-.311 13.013-.466 15.233-.155 2.214-.466 3.104-1.398 3.104-1.086 0-1.242-1.035-1.242-3.104 0-5.771-2.483-11.83-6.52-15.084-5.434-4.433-17.387-8.428-31.05-8.428-20.648 0-30.273 5.767-35.707 10.796-11.333 10.348-13.972 23.507-13.972 38.586 0 28.242 22.821 54.117 56.043 54.117 11.644 0 20.804-1.333 27.014-7.393 3.26-3.251 5.278-9.761 5.745-12.423.31-1.622.621-2.216 1.552-2.216.776 0 1.086 1.034 1.086 2.216 0 1.035-1.863 13.902-3.416 18.93-.932 2.809-1.242 3.104-4.036 4.284-6.21 2.367-18.009 3.402-27.946 3.402-23.285.003-38.966-5.466-51.231-15.963z"/><path d="m155.508 528.622c0 14.196 0 25.875.776 32.081.465 4.288 1.396 7.545 6.055 8.134 2.174.294 5.589.593 6.986.593.931 0 1.242.442 1.242.885 0 .741-.776 1.18-2.483 1.18-8.538 0-18.319-.443-19.096-.443-.776 0-10.556.443-15.214.443-1.707 0-2.484-.294-2.484-1.18 0-.445.31-.885 1.243-.885 1.397 0 3.26-.299 4.657-.593 3.105-.589 3.882-3.841 4.502-8.134.776-6.206.776-17.89.776-32.081v-15.524c0-.592-.465-.888-.931-.888h-65.826c-.466 0-.932.151-.932.888v15.524c0 14.196 0 25.875.776 32.081.466 4.288 1.397 7.545 6.055 8.134 2.173.294 5.589.593 6.986.593.931 0 1.242.442 1.242.885 0 .741-.776 1.18-2.484 1.18-8.539 0-18.319-.443-19.095-.443s-10.558.443-15.215.443c-1.707 0-2.483-.294-2.483-1.18 0-.445.311-.885 1.242-.885 1.397 0 3.261-.299 4.658-.593 3.104-.589 3.881-3.841 4.503-8.134.776-6.206.776-17.89.776-32.081v-26.021c0-23.066 0-27.208-.311-31.938-.311-5.025-1.553-7.394-6.675-8.428-1.243-.294-3.882-.445-5.279-.445-.621 0-1.242-.296-1.242-.883 0-.889.776-1.185 2.483-1.185 6.986 0 16.767.448 17.543.448s10.556-.448 15.214-.448c1.708 0 2.483.296 2.483 1.185 0 .587-.621.883-1.242.883-1.086 0-2.018.151-3.88.445-4.192.741-5.434 3.251-5.745 8.428-.311 4.73-.311 8.872-.311 31.938v3.104c0 .739.466.886.932.886h65.825c.466 0 .931-.149.931-.886v-3.104c0-23.066 0-27.208-.31-31.938-.311-5.025-1.552-7.394-6.676-8.428-1.242-.294-3.882-.445-5.279-.445-.621 0-1.242-.296-1.242-.883 0-.889.776-1.185 2.484-1.185 6.987 0 16.767.448 17.543.448s10.558-.448 15.215-.448c1.708 0 2.483.296 2.483 1.185 0 .587-.621.883-1.242.883-1.086 0-2.019.151-3.882.445-4.192.741-5.434 3.251-5.744 8.428-.311 4.73-.311 8.872-.311 31.938v26.021z"/><path d="m195.559 502.601c0-23.063 0-27.203-.308-31.934-.313-5.03-1.555-7.394-6.675-8.428-1.242-.299-3.881-.448-5.279-.448-.621 0-1.242-.293-1.242-.885 0-.886.776-1.182 2.485-1.182 6.986 0 16.453.445 17.855.445 1.396 0 10.709-.445 15.369-.445 1.706 0 2.483.296 2.483 1.182 0 .592-.62.885-1.241.885-1.088 0-2.017.149-3.88.448-4.191.587-5.434 3.249-5.746 8.428-.309 4.73-.309 8.87-.309 31.934v20.698c0 21.291 4.968 30.459 11.643 36.521 7.604 6.801 14.594 8.131 23.439 8.131 9.473 0 18.785-4.288 24.381-10.646 7.135-8.427 8.997-20.994 8.997-36.222v-18.482c0-23.063 0-27.203-.308-31.934-.313-5.03-1.555-7.394-6.676-8.428-1.241-.299-3.879-.448-5.279-.448-.621 0-1.242-.296-1.242-.885 0-.886.775-1.182 2.483-1.182 6.988 0 15.526.445 16.456.445 1.088 0 8.384-.445 13.043-.445 1.709 0 2.483.296 2.483 1.182 0 .589-.621.885-1.242.885-1.085 0-2.014 0-3.879.448-4.189.736-5.432 3.249-5.744 8.428-.308 4.73-.308 8.87-.308 31.934v15.82c0 15.968-1.87 33.713-14.288 44.208-11.173 9.462-22.823 10.941-31.979 10.941-5.275 0-20.956-.589-31.98-10.499-7.608-6.945-13.507-17.298-13.507-38.882v-21.589h-.005z"/><path d="m317.277 569.578c-2.176-1.034-2.329-1.627-2.329-5.619 0-7.393.62-13.306.774-15.674.151-1.624.465-2.362 1.242-2.362.934 0 1.085.444 1.085 1.626 0 1.329 0 3.398.465 5.468 2.324 10.942 12.573 15.084 22.977 15.084 14.901 0 22.197-10.203 22.197-19.663 0-10.206-4.497-16.116-17.851-26.613l-6.989-5.473c-16.455-12.865-20.181-22.029-20.181-32.083 0-15.82 12.418-26.614 32.137-26.614 6.055 0 10.555.59 14.438 1.48 2.951.59 4.192.741 5.435.741 1.241 0 1.55.294 1.55 1.035 0 .738-.621 5.616-.621 15.668 0 2.366-.309 3.4-1.088 3.4-.929 0-1.083-.738-1.242-1.92-.153-1.776-1.082-5.767-2.017-7.393-.934-1.625-5.12-7.836-19.405-7.836-10.714 0-19.094 6.355-19.094 17.148 0 8.428 4.347 13.457 18.941 24.84l4.347 3.254c18.32 13.751 22.664 22.917 22.664 34.745 0 6.064-2.485 17.3-13.194 24.546-6.676 4.433-15.061 6.209-23.444 6.209-7.294-.002-14.434-1.036-20.797-3.994z"/><path d="m442.56 528.622c0 14.196 0 25.875.774 32.081.467 4.288 1.396 7.545 6.055 8.134 2.176.294 5.588.593 6.989.593.929 0 1.241.442 1.241.885 0 .741-.777 1.18-2.483 1.18-8.538 0-18.323-.443-19.098-.443s-10.555.443-15.214.443c-1.709 0-2.483-.294-2.483-1.18 0-.445.308-.885 1.241-.885 1.396 0 3.259-.299 4.659-.593 3.104-.589 3.879-3.841 4.5-8.134.775-6.206.775-17.89.775-32.081v-62.542l-22.973.296c-9.626.146-13.352 1.182-15.84 4.731-1.703 2.515-2.171 3.544-2.638 4.584-.467 1.182-.929 1.478-1.55 1.478-.467 0-.779-.442-.779-1.331 0-1.479 3.104-14.195 3.417-15.377.309-.884.929-2.809 1.55-2.809 1.088 0 2.643 1.478 6.835 1.773 4.5.445 10.4.739 12.263.739h58.221c9.932 0 14.124-1.478 15.365-1.478.777 0 .777.885.777 1.773 0 4.435-.464 14.639-.464 16.266 0 1.333-.467 1.92-1.086 1.92-.774 0-1.087-.442-1.241-2.513l-.154-1.626c-.621-4.436-4.192-7.836-19.098-8.132l-19.563-.296v62.544z"/><path d="m510.558 502.601c0-23.063 0-27.203-.313-31.934-.308-5.03-1.55-7.394-6.675-8.428-1.242-.299-3.88-.448-5.277-.448-.621 0-1.242-.293-1.242-.885 0-.886.774-1.182 2.486-1.182 6.983 0 16.764.445 17.54.445 1.083 0 31.98 0 35.552-.149 2.947-.149 5.434-.443 6.676-.741.774-.149 1.393-.736 2.175-.736.465 0 .621.587.621 1.328 0 1.035-.774 2.811-1.241 6.947-.159 1.48-.467 7.985-.78 9.759-.154.741-.462 1.627-1.083 1.627-.934 0-1.241-.739-1.241-1.921 0-1.037-.159-3.552-.937-5.323-1.085-2.368-2.635-4.142-11.021-5.024-2.638-.299-19.561-.447-21.269-.447-.621 0-.934.447-.934 1.481v40.808c0 1.034.158 1.479.934 1.479 2.017 0 21.114 0 24.686-.298 3.728-.294 5.898-.588 7.297-2.07 1.085-1.179 1.703-1.92 2.324-1.92.467 0 .78.294.78 1.182s-.78 3.4-1.242 8.281c-.313 2.955-.621 8.427-.621 9.462 0 1.184 0 2.811-1.088 2.811-.774 0-1.088-.592-1.088-1.333 0-1.478 0-2.955-.62-4.876-.621-2.069-2.015-4.582-8.069-5.179-4.192-.442-19.564-.736-22.205-.736-.772 0-1.085.443-1.085 1.035v13.01c0 5.026-.154 22.178 0 25.282.467 10.204 2.797 12.124 18.011 12.124 4.04 0 10.867 0 14.905-1.627 4.036-1.624 5.898-4.579 6.986-10.642.313-1.627.621-2.219 1.394-2.219.934 0 .934 1.185.934 2.219 0 1.18-1.242 11.238-2.015 14.338-1.088 3.849-2.329 3.849-8.384 3.849-23.444 0-33.846-.889-38.348-.889-.777 0-10.558.445-15.214.445-1.706 0-2.488-.296-2.488-1.182 0-.445.313-.886 1.241-.886 1.401 0 3.264-.296 4.659-.592 3.107-.59 3.884-3.841 4.505-8.134.777-6.206.777-17.89.777-32.081v-26.031h-.003z"/><path d="m611.467 467.114c0-.886.467-1.478 1.241-1.773 1.55-.445 5.742-.888 10.401-.888 16.609 0 26.856 11.089 26.856 29.571 0 11.233-4.036 19.223-9.47 22.77-3.568 2.366-7.917 2.809-11.647 2.809-6.827 0-13.972-1.034-16.297-2.365-.777-.443-1.085-1.035-1.085-1.773v-48.351zm-12.423 61.508c0 14.196 0 25.875-.774 32.081-.621 4.288-1.394 7.545-4.5 8.134-1.398.294-3.261.593-4.659.593-.934 0-1.242.442-1.242.885 0 .886.777 1.18 2.483 1.18 4.662 0 14.439-.443 14.594-.443.774 0 10.555.443 19.093.443 1.709 0 2.488-.443 2.488-1.18 0-.445-.313-.885-1.242-.885-1.397 0-4.811-.299-6.988-.593-4.658-.589-5.588-3.841-6.055-8.134-.774-6.206-.774-17.89-.774-32.081v-3.55c0-.736.308-1.182 1.085-1.182l19.094.297c.934 0 1.396.293 2.017.885 3.104 3.844 10.405 13.751 16.922 21.88 8.852 11.09 14.285 18.335 20.961 21.735 4.033 2.07 7.917 2.812 16.609 2.812h11.021c2.797 0 3.726-.296 3.726-1.182 0-.445-.621-.888-1.394-.888-.929 0-3.106 0-6.055-.443-3.879-.592-10.555-2.219-18.938-10.646-9.003-9.166-19.561-22.325-32.291-37.847 13.973-12.271 18.785-23.213 18.785-34.155 0-10.201-6.834-17.447-10.716-20.109-8.226-5.614-18.631-6.504-28.409-6.504-4.813 0-16.609.445-18.32.445-.775 0-10.555-.445-17.543-.445-1.707 0-2.484.296-2.484 1.182 0 .592.621.885 1.242.885 1.396 0 4.041.149 5.282.448 5.121 1.034 6.362 3.397 6.676 8.428.308 4.73.308 8.87.308 31.934v26.02z"/></svg>