<svg width="516" height="175" viewBox="0 0 516 175" fill="none" xmlns="http://www.w3.org/2000/svg">
<path fill-rule="evenodd" clip-rule="evenodd" d="M34.5883 0.399852L29.9211 22.2189H24.2769L28.9456 0.399852H34.5883ZM58.3361 14.4886L61.3073 6.29489L63.0176 14.4886H58.3361ZM64.6346 22.2189H69.8539L65.2991 0.399852H60.478C59.3968 0.399852 58.4824 1.02852 58.0759 2.00131L49.6094 22.2189H55.5368L56.7109 18.9629H63.9552L64.6346 22.2189ZM49.9019 15.0963C49.9275 9.3359 41.9382 9.02026 41.9941 6.44601C42.0095 5.66206 42.7572 4.83157 44.387 4.61943C45.1983 4.51336 47.4233 4.43187 49.9522 5.59479L50.9431 0.967608C49.5863 0.476056 47.8385 0 45.6653 0C40.0857 0 36.1585 2.9662 36.1247 7.21436C36.0898 10.354 38.927 12.1081 41.0664 13.1507C43.2657 14.2231 44.0057 14.9074 43.9949 15.8621C43.9795 17.3277 42.2425 17.9719 40.6173 17.9991C37.7796 18.0431 36.1329 17.232 34.8197 16.6201L33.7975 21.3999C35.1158 22.0067 37.5492 22.5344 40.0744 22.5603C46.0039 22.5603 49.8849 19.6316 49.9019 15.0963ZM26.5225 0.399852L17.378 22.2189H11.4111L6.91016 4.80581C6.63768 3.73213 6.39957 3.34018 5.56877 2.88871C4.21301 2.15264 1.97257 1.46316 0 1.0337L0.135986 0.399852H9.73971C10.9631 0.399852 12.0643 1.21608 12.3424 2.62351L14.7199 15.2503L20.593 0.399852H26.5225Z" fill="#1A1F71"/>
<path d="M181.929 5.39307H159.762V45.057H181.929V5.39307Z" fill="#FF5F00"/>
<path d="M161.167 25.2251C161.163 21.4052 162.033 17.6345 163.709 14.1986C165.385 10.7627 167.825 7.75155 170.843 5.39313C167.106 2.46819 162.617 0.649209 157.891 0.144058C153.164 -0.361042 148.391 0.468116 144.115 2.53675C139.84 4.60539 136.235 7.83006 133.713 11.8422C131.191 15.8543 129.854 20.4919 129.854 25.2251C129.854 29.9583 131.191 34.596 133.713 38.6081C136.235 42.6202 139.84 45.8449 144.115 47.9134C148.391 49.9819 153.164 50.8112 157.891 50.3063C162.617 49.8013 167.106 47.9822 170.843 45.0572C167.825 42.6987 165.385 39.6876 163.709 36.2516C162.033 32.8157 161.163 29.0451 161.167 25.2251Z" fill="#EB001B"/>
<path d="M211.835 25.2251C211.835 29.9582 210.498 34.5959 207.976 38.608C205.454 42.6202 201.85 45.8449 197.574 47.9134C193.299 49.9819 188.525 50.8112 183.799 50.3063C179.072 49.8013 174.584 47.9822 170.847 45.0572C173.862 42.6962 176.299 39.6847 177.976 36.2493C179.652 32.8139 180.523 29.0445 180.523 25.2251C180.523 21.4058 179.652 17.6363 177.976 14.2009C176.299 10.7656 173.862 7.75391 170.847 5.39313C174.584 2.46819 179.072 0.649209 183.799 0.144058C188.525 -0.361042 193.299 0.468116 197.574 2.5368C201.85 4.60544 205.454 7.83011 207.976 11.8422C210.498 15.8544 211.835 20.492 211.835 25.2251Z" fill="#F79E1B"/>
<path d="M209.419 40.8565V40.0445H209.748V39.8791H208.91V40.0445H209.239V40.8565H209.419ZM211.044 40.8565V39.8774H210.788L210.493 40.5509L210.197 39.8774H209.94V40.8565H210.122V40.118L210.398 40.7547H210.587L210.863 40.1164V40.8565H211.044Z" fill="#F79E1B"/>
<path d="M298.922 5.69033C294.008 7.93441 290.685 12.2318 290.685 17.1643C290.685 23.3896 296.419 28.4368 303.491 28.4368C306.737 28.4368 309.02 27.6862 311.689 26.0806C311.973 25.911 312.292 25.783 312.501 26.0488C312.622 26.2007 312.571 26.3853 312.48 26.5548C309.566 31.9033 303.632 35.6213 296.975 35.6213C287.141 35.6213 279.166 27.6438 279.166 17.8116C279.163 15.1447 279.761 12.5113 280.914 10.1067C282.068 7.70205 283.748 5.5878 285.829 3.9205C288.881 1.46797 296.53 1.1297 298.922 5.69033Z" fill="url(#paint0_linear_184_1012)"/>
<path d="M312.274 12.587C312.274 18.5042 306.622 23.2988 299.654 23.2988C298.639 23.2988 295.893 23.1593 293.928 22.2443C293.369 21.9846 293.427 21.657 293.811 21.4989C294.708 21.1298 301.708 19.783 301.708 12.587C301.708 5.38753 294.276 0.123937 285.828 3.91975C288.987 1.37722 292.92 -0.00609714 296.975 0.000265995C305.247 0.000265995 312.274 5.6357 312.274 12.587Z" fill="#E50056"/>
<path d="M276.282 40.2467C273.386 40.2467 271.835 41.9891 271.835 44.2454V44.3101C271.835 46.5787 273.065 48.0654 276.155 48.0654C278.385 48.0654 279.885 47.348 280.526 45.6561H278.371C278.05 46.2072 277.447 46.5146 276.294 46.5146C274.717 46.5146 273.935 45.9378 273.733 44.8869H280.628V44.1043C280.628 41.8741 279.129 40.2467 276.282 40.2467ZM273.758 43.4259C274.014 42.3873 274.86 41.7854 276.319 41.7854C277.741 41.7854 278.472 42.3108 278.665 43.4259H273.758Z" fill="#1F0038"/>
<path d="M289.331 38.478H287.664C287.67 38.8851 287.645 39.292 287.588 39.695C287.473 40.3132 287.322 40.4404 286.767 40.4899C286.421 40.5155 286.037 40.5155 285.665 40.5155H284.358V40.2064C284.358 39.0909 284.575 38.886 285.55 38.886H286.195V37.2964H285.332C283.204 37.2964 282.473 38.0144 282.473 40.1295V40.5155H280.743V42.18H282.473V47.8463H284.344L284.358 42.18H287.459V44.4877C287.459 46.9873 288.126 47.8437 290.574 47.8437H291.969V46.0918H291.086C289.574 46.0918 289.33 45.8737 289.33 44.169V42.1821H291.969V40.5173H289.329L289.331 38.478Z" fill="#1F0038"/>
<path d="M297.83 40.2734C296.396 40.2734 295.292 40.8625 294.729 41.8754L294.566 40.5181H292.888V50.4517H294.823V46.6831C295.352 47.555 296.31 48.0414 297.784 48.0414C299.861 48.0414 301.582 46.7857 301.582 44.261V44.1964C301.573 41.646 300.138 40.2734 297.83 40.2734ZM299.566 44.2477C299.566 45.6445 298.835 46.4137 297.169 46.4137C295.592 46.4137 294.785 45.6322 294.785 44.2354V44.183C294.785 42.7349 295.694 41.8764 297.195 41.8764C298.771 41.8764 299.566 42.6713 299.566 44.1964V44.2477Z" fill="#1F0038"/>
<path d="M306.74 40.2467C304.111 40.2467 302.33 41.7207 302.33 44.1813V44.2588C302.33 46.6557 303.65 48.0654 306.701 48.0654C309.662 48.0654 311.162 46.5911 311.162 44.2588V44.1813C311.162 41.695 309.418 40.2467 306.74 40.2467ZM309.149 44.2454C309.149 45.6427 308.419 46.412 306.74 46.412C305.124 46.412 304.343 45.6561 304.343 44.2454V44.1813C304.343 42.669 305.215 41.8741 306.765 41.8741C308.355 41.8741 309.15 42.6947 309.15 44.1813L309.149 44.2454Z" fill="#1F0038"/>
<path d="M316.264 43.3641C314.353 43.2353 313.828 43.1075 313.828 42.5692C313.828 42.1207 314.2 41.7359 315.571 41.7359C316.777 41.7359 317.52 42.0186 317.686 42.7488H319.79C319.392 41.0944 318.084 40.2494 315.598 40.2494C313.111 40.2494 311.906 41.3002 311.906 42.7221C311.906 44.2472 313.188 44.7347 315.47 44.863C317.366 44.9657 317.957 45.0801 317.957 45.6322C317.957 46.17 317.495 46.5041 316.111 46.5041C314.688 46.5041 314.047 46.1957 313.842 45.4142H311.61C311.931 47.1804 313.316 48.0636 316.033 48.0636C318.609 48.0636 319.904 47.0126 319.904 45.5517C319.904 43.9824 318.802 43.517 316.264 43.3641Z" fill="#1F0038"/>
<path d="M320.715 41.8771C320.503 41.8848 320.296 41.8135 320.135 41.677C320.056 41.6026 319.994 41.5117 319.955 41.4106C319.915 41.3095 319.898 41.2013 319.905 41.093V41.055C319.905 40.9774 319.914 40.9 319.933 40.8246C319.95 40.7559 319.976 40.6899 320.011 40.6285C320.078 40.5102 320.177 40.4132 320.297 40.3485C320.423 40.2813 320.564 40.2473 320.706 40.2496C320.779 40.2489 320.851 40.2566 320.921 40.2726C320.989 40.2879 321.054 40.3113 321.116 40.3423C321.236 40.4062 321.337 40.5014 321.406 40.6179C321.483 40.7491 321.52 40.899 321.516 41.0506V41.093C321.517 41.172 321.508 41.2505 321.489 41.327C321.472 41.3952 321.444 41.4599 321.406 41.5189C321.339 41.6333 321.239 41.7257 321.12 41.7837C320.994 41.8463 320.855 41.8786 320.715 41.8771ZM320.715 41.7421C320.888 41.7488 321.056 41.6883 321.185 41.5733C321.249 41.5097 321.298 41.4332 321.33 41.3485C321.362 41.2644 321.375 41.1741 321.368 41.0843V41.0586C321.374 40.9674 321.36 40.8762 321.328 40.7907C321.296 40.7054 321.246 40.6278 321.181 40.5631C321.052 40.4443 320.881 40.3809 320.706 40.3865C320.62 40.3833 320.535 40.3973 320.455 40.4276C320.374 40.458 320.301 40.504 320.238 40.5631C320.175 40.6282 320.126 40.7057 320.094 40.7906C320.062 40.8756 320.048 40.9662 320.053 41.0566V41.0781C320.047 41.1679 320.06 41.2577 320.093 41.3419C320.125 41.426 320.174 41.502 320.238 41.5656C320.368 41.6841 320.539 41.7478 320.715 41.7421ZM320.724 41.1602H320.547V41.4681H320.409V40.6373H320.743C320.831 40.629 320.918 40.6529 320.99 40.7044C321.014 40.7268 321.033 40.7541 321.046 40.7846C321.059 40.8151 321.065 40.848 321.064 40.8811C321.067 40.9317 321.051 40.9816 321.022 41.0224C320.989 41.0602 320.944 41.0858 320.895 41.0956C320.939 41.1022 320.98 41.1248 321.009 41.1592C321.034 41.2023 321.046 41.2526 321.043 41.3024V41.4224C321.042 41.4301 321.042 41.4378 321.043 41.4455L321.051 41.465H320.904C320.9 41.4604 320.898 41.4553 320.898 41.4496C320.897 41.4409 320.897 41.4317 320.898 41.4224V41.2998C320.902 41.2603 320.891 41.2208 320.869 41.1884C320.826 41.1607 320.774 41.15 320.724 41.1577V41.1602ZM320.724 41.0382C320.778 41.0456 320.833 41.0328 320.877 41.0021C320.893 40.9871 320.905 40.969 320.912 40.949C320.92 40.929 320.923 40.9077 320.921 40.8863C320.923 40.8678 320.919 40.8492 320.911 40.8326C320.903 40.8158 320.89 40.8015 320.875 40.791C320.831 40.7667 320.781 40.7556 320.732 40.7592H320.555V41.0382H320.724Z" fill="#1F0038"/>
<path d="M513.777 5.20986L509.732 2.89526L505.629 0.545587C502.917 -1.00917 499.527 0.943042 499.527 4.07594V4.60198C499.527 4.89423 499.679 5.1631 499.936 5.30338L501.842 6.39054C502.368 6.69448 503.022 6.30871 503.022 5.70084V4.45001C503.022 3.83045 503.689 3.44468 504.226 3.74862L507.967 5.89956L511.696 8.03882C512.234 8.34275 512.234 9.12598 511.696 9.42992L507.967 11.5692L504.226 13.7201C503.689 14.024 503.022 13.6383 503.022 13.0187V12.3992C503.022 9.26626 499.632 7.30235 496.92 8.8688L492.817 11.2185L488.772 13.5331C486.049 15.0995 486.049 19.039 488.772 20.6055L492.817 22.9201L496.92 25.2697C499.632 26.8245 503.022 24.8723 503.022 21.7394V21.2133C503.022 20.9211 502.87 20.6522 502.613 20.5119L500.708 19.4248C500.182 19.1208 499.527 19.5066 499.527 20.1145V21.3653C499.527 21.9849 498.861 22.3706 498.323 22.0667L494.582 19.9158L490.853 17.7765C490.315 17.4726 490.315 16.6893 490.853 16.3854L494.582 14.2462L498.323 12.0952C498.861 11.7913 499.527 12.177 499.527 12.7966V13.4162C499.527 16.5491 502.917 18.513 505.629 16.9465L509.732 14.5969L513.777 12.2823C516.501 10.7041 516.501 6.77631 513.777 5.20986Z" fill="black"/>
<path d="M487.24 5.98047L477.771 25.5377H473.844L477.386 18.2315L471.81 5.98047H475.843L479.42 14.1868L483.324 5.98047H487.24Z" fill="black"/>
<path d="M392.564 12.9249C392.564 10.5869 390.869 8.95032 388.788 8.95032C386.707 8.95032 385.012 10.622 385.012 12.9249C385.012 15.2044 386.707 16.8995 388.788 16.8995C390.869 16.8995 392.564 15.2629 392.564 12.9249ZM392.599 19.8687V18.0684C391.57 19.3193 390.039 20.0908 388.215 20.0908C384.404 20.0908 381.517 17.0397 381.517 12.9249C381.517 8.84511 384.521 5.7356 388.297 5.7356C390.074 5.7356 391.57 6.51882 392.599 7.73457V5.98108H396.012V19.8687H392.599V19.8687Z" fill="black"/>
<path d="M412.612 16.7832C411.42 16.7832 411.081 16.339 411.081 15.17V9.00939H413.279V5.98171H411.081V2.59164H407.586V5.98171H403.074V4.6023C403.074 3.43331 403.518 2.98909 404.745 2.98909H405.517V0.300415H403.833C400.946 0.300415 399.578 1.2473 399.578 4.1347V5.9934H397.638V9.00939H399.578V19.8693H403.074V9.00939H407.586V15.8129C407.586 18.6419 408.673 19.8693 411.502 19.8693H413.302V16.7832H412.612Z" fill="black"/>
<path d="M425.166 11.6749C424.921 9.87465 423.448 8.78749 421.718 8.78749C419.999 8.78749 418.573 9.83958 418.222 11.6749H425.166ZM418.187 13.8375C418.433 15.8949 419.906 17.0639 421.776 17.0639C423.249 17.0639 424.383 16.3742 425.049 15.2637H428.638C427.808 18.2096 425.166 20.0916 421.694 20.0916C417.498 20.0916 414.552 17.1458 414.552 12.9491C414.552 8.75242 417.661 5.72473 421.776 5.72473C425.914 5.72473 428.919 8.7758 428.919 12.9491C428.919 13.253 428.895 13.557 428.837 13.8375H418.187V13.8375Z" fill="black"/>
<path d="M451.177 12.9258C451.177 10.6814 449.482 8.95127 447.401 8.95127C445.32 8.95127 443.625 10.6229 443.625 12.9258C443.625 15.2054 445.32 16.9004 447.401 16.9004C449.482 16.9004 451.177 15.182 451.177 12.9258ZM440.177 25.5392V5.98203H443.59V7.78228C444.619 6.50808 446.15 5.72485 447.974 5.72485C451.726 5.72485 454.672 8.81099 454.672 12.8908C454.672 16.9705 451.668 20.0801 447.892 20.0801C446.139 20.0801 444.701 19.3904 443.695 18.2214V25.5276H440.177V25.5392Z" fill="black"/>
<path d="M466.982 12.9248C466.982 10.5868 465.286 8.9502 463.206 8.9502C461.125 8.9502 459.43 10.6219 459.43 12.9248C459.43 15.2043 461.125 16.8993 463.206 16.8993C465.286 16.8993 466.982 15.2627 466.982 12.9248ZM467.017 19.8686V18.0683C465.988 19.3191 464.457 20.0907 462.633 20.0907C458.822 20.0907 455.935 17.0396 455.935 12.9248C455.935 8.84499 458.939 5.73547 462.715 5.73547C464.492 5.73547 465.988 6.5187 467.017 7.73445V5.98096H470.43V19.8686H467.017V19.8686Z" fill="black"/>
<path d="M434.017 7.33794C434.017 7.33794 434.882 5.72473 437.021 5.72473C437.933 5.72473 438.518 6.04036 438.518 6.04036V9.5824C438.518 9.5824 437.232 8.78749 436.051 8.95115C434.87 9.1148 434.122 10.1903 434.122 11.6398V19.8578H430.592V5.98191H434.005V7.33794H434.017Z" fill="black"/>
<path fill-rule="evenodd" clip-rule="evenodd" d="M57.588 110.452H0V168.452H57.588V149.31C57.8168 148.978 57.9297 148.554 57.9297 148.035C57.9297 147.441 57.8168 147.073 57.588 146.763" fill="#006FCF"/>
<path fill-rule="evenodd" clip-rule="evenodd" d="M2.76592 139.817H0V134.845L1.96026 130.339H6.18149L6.7249 131.458V130.339H11.6743L12.7571 132.787L13.8116 130.339H29.5255C30.2393 130.339 30.8817 130.472 31.3533 130.892V130.339H35.6546V130.892C36.3951 130.485 37.3121 130.339 38.3559 130.339H44.5886L45.1665 131.458V130.339H49.7808L50.4104 131.458V130.339H54.9072V139.817H50.3637L49.5047 138.383V139.817H43.8348L43.219 138.307H41.8227L41.1931 139.817H38.2507C37.096 139.817 36.2186 139.543 35.6546 139.24V139.817H28.6603V137.666C28.6603 137.362 28.6069 137.345 28.4237 137.339H28.162L28.1682 139.817H14.645V138.645L14.1595 139.821H11.3346L10.8486 138.663V139.817H5.40712L4.78519 138.307H3.38939L2.76592 139.817ZM17.4761 138.481H15.817L15.8108 133.159L13.4637 138.481H12.0428L9.68942 133.154V138.481H6.39751L5.77558 136.966H2.40517L1.77707 138.481H0.0189803L2.91729 131.686H5.32246L8.07554 138.12V131.686H10.7173L12.8356 136.296L14.7815 131.686H17.4761V138.481ZM5.1911 135.549L4.08317 132.84L2.98144 135.549H5.1911ZM29.5973 134.471C29.3746 134.606 29.1119 134.611 28.7963 134.611H26.8304V133.101H28.8235C29.1052 133.101 29.3997 133.114 29.5906 133.224C29.8005 133.323 29.9309 133.534 29.9309 133.825C29.9309 134.122 29.8072 134.361 29.5973 134.471ZM42.5047 132.84L43.6249 135.549H41.3907L42.5047 132.84ZM18.6825 138.481H24.0901V137.076H20.3015V135.719H23.9988V134.326H20.3015V133.101H24.0901V131.686H18.6825V138.481ZM31.7141 133.516C31.7141 134.6 30.9931 135.159 30.5733 135.327C30.9274 135.463 31.2302 135.702 31.3738 135.9C31.6027 136.238 31.6417 136.54 31.6417 137.146V138.481H30.0094L30.0032 137.624C30.0032 137.583 30.0037 137.54 30.0042 137.495C30.0078 137.099 30.0124 136.594 29.7476 136.301C29.5111 136.062 29.1509 136.01 28.5679 136.01H26.8304V138.481H25.2119V131.686H28.9348C29.762 131.686 30.3717 131.708 30.8946 132.011C31.4067 132.315 31.7141 132.758 31.7141 133.516ZM32.6526 138.481H34.304V131.686H32.6526V138.481ZM53.4647 138.481H51.1709L48.1028 133.381V138.481H44.8062L44.1766 136.966H40.8139L40.2027 138.481H38.3092C37.522 138.481 36.526 138.307 35.962 137.73C35.3929 137.153 35.0968 136.371 35.0968 135.136C35.0968 134.128 35.2738 133.206 35.9697 132.478C36.4931 131.936 37.3126 131.686 38.4277 131.686H39.9949V133.142H38.4605C37.8699 133.142 37.5363 133.23 37.2151 133.545C36.939 133.831 36.7497 134.372 36.7497 135.084C36.7497 135.812 36.8939 136.337 37.1951 136.68C37.444 136.949 37.8971 137.03 38.323 137.03H39.0502L41.3312 131.686H43.7563L46.4971 138.114V131.686H48.9613L51.8067 136.419V131.686H53.4647V138.481Z" fill="white"/>
<path fill-rule="evenodd" clip-rule="evenodd" d="M55.3907 150.18C56.4278 150.18 57.1939 149.887 57.587 149.31V151.077C56.9389 151.391 56.0865 151.514 55.2137 151.514H51.0196V150.907C50.5336 151.299 49.6562 151.514 48.8166 151.514H35.5941V149.322C35.5941 149.053 35.568 149.042 35.2996 149.042H35.0897V151.514H30.7371V148.955C30.0084 149.271 29.1828 149.299 28.4828 149.288H27.964V151.519L22.6867 151.515L21.3895 150.04L20.0121 151.515H11.4512V142.03H20.1764L21.4279 143.482L22.7647 142.03H28.606C29.2813 142.03 30.3887 142.101 30.887 142.585V142.03H36.1063C36.5963 142.03 37.6591 142.129 38.2887 142.585V142.03H46.2011V142.585C46.5947 142.206 47.426 142.03 48.1346 142.03H52.5657V142.585C53.0307 142.247 53.6875 142.03 54.5912 142.03H57.587V143.383H54.3628C52.6643 143.383 52.0403 144.42 52.0403 145.406C52.0403 147.416 53.6967 147.461 55.1541 147.501C55.2562 147.504 55.3568 147.507 55.4564 147.51C55.7381 147.51 55.909 147.557 56.0265 147.661C56.1455 147.755 56.2246 147.912 56.2246 148.11C56.2246 148.296 56.1455 148.449 56.0332 148.554C55.9028 148.681 55.6868 148.722 55.3779 148.722H52.2645V150.18H55.3907ZM54.6369 144.828H57.587V146.762L57.5665 146.735V146.735C57.529 146.686 57.4921 146.638 57.4372 146.594C57.0764 146.222 56.4857 146.069 55.6006 146.047L54.7231 146.023C54.4537 146.023 54.2705 146.006 54.0996 145.946C53.8897 145.871 53.7455 145.696 53.7455 145.44C53.7455 145.224 53.8112 145.061 53.9821 144.951C54.1468 144.839 54.3423 144.828 54.6369 144.828ZM51.1305 146.594C51.4455 146.922 51.6144 147.335 51.6144 148.035C51.6144 149.497 50.704 150.179 49.0717 150.179H45.9194V148.722H49.0593C49.3662 148.722 49.5838 148.681 49.7203 148.553C49.8317 148.448 49.9117 148.296 49.9117 148.11C49.9117 147.912 49.825 147.755 49.7141 147.661C49.5905 147.557 49.4196 147.51 49.1374 147.51C49.0383 147.506 48.9377 147.504 48.8361 147.501C47.3839 147.461 45.7285 147.416 45.7285 145.406C45.7285 144.42 46.3453 143.382 48.0423 143.382H51.2875V144.829H48.3184C48.0238 144.829 47.8324 144.84 47.6697 144.952C47.4922 145.062 47.4265 145.225 47.4265 145.441C47.4265 145.697 47.5774 145.872 47.7806 145.947C47.9514 146.007 48.1352 146.024 48.4107 146.024L49.2821 146.048C50.1606 146.069 50.7641 146.222 51.1305 146.594ZM35.7255 146.315C36.0406 146.315 36.3085 146.304 36.525 146.175C36.7349 146.048 36.8601 145.813 36.8601 145.523C36.8601 145.232 36.7349 145.021 36.525 144.911C36.329 144.794 36.0406 144.788 35.7522 144.788H33.7596V146.315H35.7255ZM37.5026 147.021C37.8628 147.154 38.1574 147.393 38.2954 147.591C38.5238 147.923 38.5571 148.233 38.5633 148.832V150.18H36.9386V149.329C36.9386 149.288 36.9391 149.246 36.9391 149.201C36.9427 148.802 36.9478 148.283 36.6769 147.999C36.4403 147.755 36.0796 147.697 35.4895 147.697H33.7596V150.18H32.1329V143.382H35.8702C36.6897 143.382 37.2865 143.419 37.8176 143.703C38.3282 144.013 38.6495 144.437 38.6495 145.212C38.6495 146.297 37.9285 146.851 37.5026 147.021ZM44.9495 143.382H39.547V150.18H44.9495V148.769L41.1593 148.763V147.411H44.8571V146.024H41.1593V144.788H44.9495V143.382ZM28.6265 146.519H26.5349V144.788H28.6455C29.2294 144.788 29.6354 145.027 29.6354 145.622C29.6354 146.21 29.2484 146.519 28.6265 146.519ZM22.4373 146.793L24.9225 149.561V144.112L22.4373 146.793ZM18.505 148.761H14.525V147.409H18.0786V146.022H14.525V144.786H18.583L20.3539 146.767L18.505 148.761ZM28.5541 147.9C29.9689 147.9 31.3729 147.51 31.3729 145.622C31.3729 143.739 29.9299 143.382 28.645 143.382H23.4729L21.4141 145.61L19.423 143.382H12.9126V150.18H19.324L21.3956 147.929L23.3887 150.18H26.5349V147.9H28.5541Z" fill="white"/>
<path fill-rule="evenodd" clip-rule="evenodd" d="M125.524 110.452H195.139C195.432 110.452 195.719 110.452 196.012 110.453C196.253 110.455 196.499 110.458 196.745 110.464C197.274 110.479 197.813 110.51 198.336 110.605C198.87 110.701 199.368 110.858 199.855 111.105C200.332 111.347 200.769 111.665 201.143 112.043C201.523 112.422 201.841 112.858 202.082 113.335C202.328 113.821 202.488 114.318 202.58 114.853C202.677 115.379 202.708 115.916 202.724 116.448C202.729 116.693 202.734 116.937 202.734 117.181C202.734 117.471 202.734 117.761 202.734 118.052V157.183C202.734 157.473 202.734 157.762 202.734 158.053C202.734 158.298 202.729 158.542 202.724 158.786C202.708 159.318 202.677 159.855 202.58 160.381C202.488 160.916 202.328 161.414 202.082 161.899C201.841 162.376 201.523 162.813 201.143 163.191C200.769 163.57 200.332 163.888 199.855 164.129C199.368 164.377 198.87 164.534 198.336 164.63C197.813 164.724 197.274 164.756 196.745 164.77C196.499 164.776 196.253 164.779 196.012 164.78C195.719 164.782 195.432 164.782 195.139 164.782H125.524C125.237 164.782 124.945 164.782 124.657 164.78C124.411 164.779 124.165 164.776 123.923 164.77C123.39 164.756 122.851 164.724 122.327 164.63C121.794 164.534 121.296 164.377 120.808 164.129C120.336 163.888 119.9 163.57 119.52 163.191C119.141 162.813 118.823 162.376 118.581 161.899C118.335 161.414 118.176 160.916 118.084 160.381C117.986 159.855 117.955 159.318 117.94 158.786C117.935 158.542 117.935 158.298 117.93 158.053C117.93 157.821 117.93 157.589 117.93 157.357C117.93 157.299 117.93 157.241 117.93 157.183V118.052C117.93 117.994 117.93 117.936 117.93 117.878C117.93 117.645 117.93 117.413 117.93 117.181C117.935 116.937 117.935 116.693 117.94 116.448C117.955 115.916 117.986 115.379 118.084 114.853C118.176 114.318 118.335 113.821 118.581 113.335C118.823 112.858 119.141 112.422 119.52 112.043C119.9 111.665 120.336 111.347 120.808 111.105C121.296 110.858 121.794 110.701 122.327 110.605C122.851 110.51 123.39 110.479 123.923 110.464C124.165 110.458 124.411 110.455 124.657 110.453C124.945 110.452 125.237 110.452 125.524 110.452ZM195.996 112.264L195.139 112.263H125.524L124.667 112.264C124.437 112.266 124.206 112.268 123.97 112.275C123.564 112.286 123.087 112.308 122.646 112.387C122.261 112.456 121.943 112.562 121.635 112.719C121.322 112.876 121.045 113.079 120.798 113.324C120.552 113.569 120.352 113.849 120.198 114.156C120.039 114.466 119.931 114.788 119.864 115.172C119.782 115.617 119.762 116.092 119.751 116.497C119.746 116.729 119.741 116.961 119.741 117.193V117.873V118.052V157.183V157.362V158.043C119.741 158.274 119.746 158.506 119.751 158.737C119.762 159.143 119.782 159.617 119.864 160.059C119.931 160.446 120.039 160.769 120.193 161.077C120.352 161.386 120.552 161.666 120.798 161.909C121.045 162.156 121.322 162.359 121.63 162.514C121.943 162.673 122.261 162.779 122.646 162.848C123.097 162.928 123.59 162.95 123.97 162.96C124.195 162.965 124.431 162.968 124.662 162.969C124.95 162.972 125.232 162.972 125.514 162.972H125.524H195.139H195.16C195.437 162.972 195.719 162.972 195.996 162.969C196.237 162.968 196.468 162.965 196.704 162.96C197.074 162.95 197.572 162.928 198.023 162.847C198.403 162.779 198.726 162.673 199.029 162.516C199.342 162.359 199.619 162.157 199.865 161.91C200.112 161.666 200.312 161.386 200.471 161.077C200.63 160.768 200.733 160.447 200.799 160.065C200.881 159.622 200.902 159.145 200.912 158.737C200.917 158.507 200.922 158.276 200.922 158.045C200.928 157.759 200.928 157.48 200.928 157.2V157.183V118.052V118.035C200.928 117.755 200.928 117.475 200.922 117.195C200.922 116.959 200.917 116.729 200.912 116.498C200.902 116.089 200.881 115.613 200.799 115.175C200.733 114.787 200.63 114.466 200.471 114.159C200.312 113.85 200.112 113.569 199.865 113.323C199.619 113.079 199.342 112.875 199.034 112.72C198.726 112.562 198.403 112.456 198.018 112.387C197.577 112.308 197.099 112.286 196.694 112.275C196.463 112.268 196.227 112.266 195.996 112.264Z" fill="#3E4348"/>
<path d="M141.085 128.723C141.808 127.815 142.301 126.594 142.173 125.347C141.111 125.4 139.812 126.049 139.063 126.958C138.386 127.737 137.79 129.009 137.944 130.204C139.14 130.307 140.331 129.607 141.085 128.723Z" fill="#3E4348"/>
<path d="M142.157 130.436C140.423 130.333 138.95 131.42 138.124 131.42C137.297 131.42 136.03 130.488 134.66 130.513C132.874 130.54 131.222 131.549 130.313 133.154C128.451 136.366 129.821 141.13 131.632 143.745C132.515 145.039 133.572 146.464 134.968 146.413C136.287 146.361 136.805 145.558 138.411 145.558C140.012 145.558 140.479 146.413 141.875 146.387C143.322 146.361 144.225 145.092 145.108 143.797C146.113 142.322 146.529 140.897 146.555 140.819C146.529 140.793 143.763 139.731 143.738 136.546C143.712 133.88 145.908 132.611 146.011 132.533C144.769 130.695 142.829 130.488 142.157 130.436Z" fill="#3E4348"/>
<path d="M157.243 126.829C161.01 126.829 163.632 129.427 163.632 133.21C163.632 137.006 160.959 139.617 157.151 139.617H152.979V146.253H149.967V126.829H157.243ZM152.979 137.086H156.438C159.06 137.086 160.553 135.673 160.553 133.223C160.553 130.773 159.06 129.373 156.453 129.373H152.979V137.086Z" fill="#3E4348"/>
<path d="M164.422 142.227C164.422 139.75 166.315 138.229 169.682 138.041L173.556 137.812V136.722C173.556 135.147 172.494 134.205 170.718 134.205C169.035 134.205 167.983 135.012 167.732 136.278H164.986C165.145 133.72 167.326 131.835 170.826 131.835C174.254 131.835 176.445 133.653 176.445 136.493V146.252H173.664V143.923H173.597C172.776 145.498 170.985 146.494 169.128 146.494C166.356 146.494 164.422 144.771 164.422 142.227ZM173.556 140.949V139.831L170.072 140.047C168.337 140.168 167.352 140.935 167.352 142.147C167.352 143.385 168.378 144.193 169.938 144.193C171.965 144.193 173.556 142.793 173.556 140.949Z" fill="#3E4348"/>
<path d="M179.079 151.465V149.109C179.289 149.163 179.777 149.163 180.018 149.163C181.362 149.163 182.091 148.598 182.532 147.144C182.532 147.117 182.789 146.282 182.789 146.269L177.678 132.094H180.823L184.405 143.617H184.457L188.033 132.094H191.102L185.801 146.996C184.59 150.428 183.194 151.532 180.259 151.532C180.018 151.532 179.289 151.505 179.079 151.465Z" fill="#3E4348"/>
<path d="M312.171 140.41H316.923C317.118 140.408 317.308 140.39 317.492 140.357C317.97 140.244 318.39 139.974 318.693 139.591C318.996 139.207 319.16 138.733 319.16 138.245C319.16 137.757 318.996 137.283 318.693 136.899C318.39 136.516 317.97 136.246 317.492 136.133C317.308 136.1 317.118 136.082 316.923 136.08H312.171V140.41Z" fill="url(#paint1_linear_184_1012)"/>
<path d="M316.37 110.452C314.194 110.452 312.105 111.316 310.566 112.856C309.026 114.395 308.159 116.483 308.159 118.661V127.187H319.777C320.049 127.187 320.377 127.206 320.583 127.217C323.21 127.349 325.15 128.7 325.15 131.043C325.15 132.896 323.826 134.46 321.414 134.815V134.907C324.077 135.093 326.12 136.557 326.12 138.869C326.12 141.367 323.877 142.975 320.891 142.975H308.159V159.71H320.208C322.389 159.71 324.472 158.846 326.012 157.306C327.551 155.767 328.419 153.679 328.419 151.501V110.452H316.37Z" fill="url(#paint2_linear_184_1012)"/>
<path d="M318.601 131.637C318.606 131.167 318.447 130.71 318.144 130.35C317.841 129.991 317.415 129.753 316.948 129.682C316.8 129.66 316.641 129.647 316.487 129.645H312.171V133.641H316.487C316.641 133.639 316.8 133.626 316.948 133.604C317.415 133.533 317.841 133.294 318.144 132.932C318.452 132.57 318.611 132.11 318.601 131.637Z" fill="url(#paint3_linear_184_1012)"/>
<path d="M270.943 110.452C268.766 110.452 266.678 111.316 265.139 112.856C263.599 114.395 262.734 116.483 262.734 118.661V138.936C265.037 140.051 267.415 140.779 269.836 140.779C272.674 140.779 274.238 139.045 274.238 136.712V127.189H281.296V136.712C281.296 140.438 279.009 143.431 271.161 143.431C268.321 143.431 265.492 143.087 262.734 142.407V159.71H274.783C276.959 159.709 279.045 158.843 280.583 157.304C282.121 155.764 282.985 153.677 282.985 151.501V110.452H270.943Z" fill="url(#paint4_linear_184_1012)"/>
<path d="M293.656 110.452C292.577 110.451 291.51 110.662 290.512 111.074C289.516 111.487 288.61 112.091 287.847 112.853C287.084 113.616 286.479 114.521 286.066 115.518C285.653 116.514 285.44 117.582 285.44 118.661V129.409C287.525 127.625 291.117 126.511 296.961 126.772C299.137 126.91 301.292 127.238 303.407 127.752V131.228C301.482 130.207 299.368 129.589 297.192 129.411C292.755 129.078 290.086 131.244 290.086 135.081C290.086 138.918 292.755 141.084 297.192 140.748C299.363 140.567 301.477 139.95 303.407 138.934V142.41C301.292 142.923 299.137 143.251 296.961 143.39C291.124 143.654 287.525 142.537 285.44 140.753V159.71H297.49C299.666 159.71 301.754 158.846 303.294 157.306C304.833 155.767 305.695 153.679 305.695 151.501V110.452H293.656Z" fill="url(#paint5_linear_184_1012)"/>
<path d="M462.246 110.452H415.169C400.457 110.452 388.418 122.489 388.418 137.201C388.418 151.913 400.457 163.951 415.169 163.951H462.246C476.958 163.951 488.997 151.913 488.997 137.201C488.997 122.489 476.958 110.452 462.246 110.452Z" fill="white"/>
<path d="M462.246 112.618C465.525 112.614 468.768 113.274 471.785 114.558C477.681 117.068 482.382 121.766 484.891 127.665C486.169 130.681 486.831 133.924 486.831 137.201C486.831 140.478 486.169 143.721 484.891 146.737C482.382 152.636 477.681 157.334 471.785 159.845C468.768 161.128 465.525 161.788 462.246 161.784H415.169C411.89 161.788 408.647 161.128 405.629 159.845C399.733 157.334 395.033 152.636 392.523 146.737C391.245 143.721 390.583 140.478 390.583 137.201C390.583 133.924 391.245 130.681 392.523 127.665C395.033 121.766 399.733 117.068 405.629 114.558C408.647 113.274 411.89 112.614 415.169 112.618H462.246ZM462.246 110.452H415.169C400.457 110.452 388.418 122.489 388.418 137.201C388.418 151.913 400.457 163.951 415.169 163.951H462.246C476.958 163.951 488.997 151.913 488.997 137.201C488.997 122.489 476.958 110.452 462.246 110.452Z" fill="#3C4043"/>
<path d="M436.376 139.101V147.192H433.811V127.21H440.62C442.344 127.21 443.817 127.785 445.018 128.936C446.25 130.086 446.865 131.49 446.865 133.149C446.881 133.947 446.727 134.739 446.409 135.471C446.09 136.203 445.613 136.857 445.018 137.389C443.827 138.525 442.36 139.087 440.62 139.087H436.376V139.101ZM436.376 129.671V136.64H440.671C441.144 136.652 441.611 136.567 442.052 136.39C442.488 136.213 442.883 135.947 443.212 135.61C443.54 135.293 443.802 134.912 443.981 134.492C444.156 134.071 444.248 133.619 444.243 133.162C444.243 132.71 444.156 132.262 443.976 131.846C443.802 131.429 443.54 131.054 443.212 130.741C442.545 130.032 441.703 129.685 440.671 129.685H436.376V129.671Z" fill="#3C4043"/>
<path d="M453.578 133.069C455.476 133.069 456.975 133.577 458.073 134.593C459.171 135.61 459.72 137.001 459.72 138.766V147.193H457.272V145.293H457.165C456.108 146.858 454.691 147.634 452.926 147.634C451.412 147.634 450.155 147.193 449.139 146.296C448.651 145.888 448.261 145.375 448 144.797C447.733 144.218 447.605 143.588 447.615 142.953C447.615 141.535 448.149 140.412 449.221 139.582C450.288 138.74 451.72 138.325 453.501 138.325C455.025 138.325 456.282 138.606 457.257 139.168V138.579C457.257 137.683 456.908 136.934 456.2 136.305C455.517 135.69 454.63 135.355 453.711 135.369C452.279 135.369 451.145 135.971 450.314 137.188L448.056 135.77C449.298 133.965 451.14 133.064 453.578 133.069ZM450.263 142.993C450.258 143.32 450.335 143.643 450.483 143.934C450.632 144.225 450.853 144.476 451.12 144.665C451.684 145.11 452.387 145.346 453.111 145.333C454.193 145.333 455.158 144.932 456 144.13C456.841 143.327 457.272 142.391 457.272 141.308C456.467 140.679 455.358 140.358 453.927 140.358C452.885 140.358 452.013 140.612 451.32 141.107C450.612 141.629 450.263 142.257 450.263 142.993Z" fill="#3C4043"/>
<path d="M473.683 133.51L465.124 153.198H462.476L465.657 146.31L460.013 133.51H462.809L466.874 143.327H466.925L470.886 133.51H473.683Z" fill="#3C4043"/>
<path d="M426.166 137.469C426.166 136.662 426.094 135.856 425.95 135.061H415.189V139.475H421.388C421.27 140.194 421.003 140.88 420.608 141.492C420.213 142.103 419.695 142.627 419.084 143.03V145.895H422.779C424.929 143.899 426.166 140.946 426.166 137.469Z" fill="#4285F4"/>
<path d="M419.084 143.031C418.058 143.724 416.734 144.129 415.19 144.129C412.198 144.129 409.663 142.115 408.755 139.4H404.952V142.353C405.907 144.25 407.369 145.845 409.175 146.96C410.987 148.074 413.065 148.664 415.19 148.663C418.284 148.663 420.886 147.645 422.779 145.893L419.084 143.031Z" fill="#34A853"/>
<path d="M408.4 137.208C408.4 136.463 408.518 135.723 408.759 135.016V132.063H404.952C404.151 133.66 403.73 135.422 403.73 137.208C403.73 138.995 404.151 140.757 404.952 142.353L408.759 139.4C408.518 138.694 408.4 137.953 408.4 137.208Z" fill="#FABB05"/>
<path d="M415.19 130.287C416.827 130.261 418.402 130.878 419.587 132.006L422.856 128.738C420.87 126.888 418.284 125.753 415.19 125.753C413.065 125.753 410.987 126.342 409.175 127.457C407.369 128.571 405.907 130.166 404.952 132.063L408.76 135.016C409.663 132.301 412.203 130.287 415.19 130.287Z" fill="#E94235"/>
<defs>
<linearGradient id="paint0_linear_184_1012" x1="296.026" y1="23.6819" x2="289.21" y2="-11.3811" gradientUnits="userSpaceOnUse">
<stop offset="0.14" stop-color="#E50056"/>
<stop offset="0.75" stop-color="#1F0038"/>
</linearGradient>
<linearGradient id="paint1_linear_184_1012" x1="308.379" y1="138.383" x2="328.777" y2="138.383" gradientUnits="userSpaceOnUse">
<stop stop-color="#007F49"/>
<stop offset="0.29" stop-color="#209348"/>
<stop offset="0.76" stop-color="#50B047"/>
<stop offset="1" stop-color="#62BB46"/>
</linearGradient>
<linearGradient id="paint2_linear_184_1012" x1="4166.17" y1="5386.57" x2="5744.22" y2="5386.57" gradientUnits="userSpaceOnUse">
<stop stop-color="#007F49"/>
<stop offset="0.29" stop-color="#209348"/>
<stop offset="0.76" stop-color="#50B047"/>
<stop offset="1" stop-color="#62BB46"/>
</linearGradient>
<linearGradient id="paint3_linear_184_1012" x1="1536.36" y1="504.903" x2="2037.03" y2="504.903" gradientUnits="userSpaceOnUse">
<stop stop-color="#007F49"/>
<stop offset="0.29" stop-color="#209348"/>
<stop offset="0.76" stop-color="#50B047"/>
<stop offset="1" stop-color="#62BB46"/>
</linearGradient>
<linearGradient id="paint4_linear_184_1012" x1="262.728" y1="135.207" x2="283.435" y2="135.207" gradientUnits="userSpaceOnUse">
<stop stop-color="#333376"/>
<stop offset="0.09" stop-color="#2E3A7E"/>
<stop offset="0.7" stop-color="#0D66AE"/>
<stop offset="1" stop-color="#0077C0"/>
</linearGradient>
<linearGradient id="paint5_linear_184_1012" x1="285.445" y1="135.207" x2="305.557" y2="135.207" gradientUnits="userSpaceOnUse">
<stop stop-color="#743237"/>
<stop offset="0.4" stop-color="#AB263E"/>
<stop offset="0.8" stop-color="#DB1C44"/>
<stop offset="1" stop-color="#ED1846"/>
</linearGradient>
</defs>
</svg>
